<?xml version="1.0" standalone="no"?><!DOCTYPE svg PUBLIC "-//W3C//DTD SVG 1.1//EN" "http://www.w3.org/Graphics/SVG/1.1/DTD/svg11.dtd"><svg t="1693148557162" class="icon" viewBox="0 0 1024 1024" version="1.1" xmlns="http://www.w3.org/2000/svg" p-id="5813" xmlns:xlink="http://www.w3.org/1999/xlink" width="200" height="200"><path d="M794.959513 717.266014c38.593993 0 69.509097-31.262004 69.509097-69.855998l0.347924-384.219755c0-38.593993-31.263028-69.857021-69.857021-69.857021L236.098229 193.33324c-38.598086 0-69.860091 31.263028-69.860091 69.857021l0 384.219755c0 38.593993 31.262004 69.855998 69.860091 69.855998L96.381118 717.266014c0 38.598086 31.263028 69.857021 69.857021 69.857021l698.578396 0c38.597063 0 69.855998-31.258934 69.855998-69.857021L794.959513 717.266014 794.959513 717.266014zM236.098229 263.190261 794.959513 263.190261l0 384.219755L236.098229 647.410016 236.098229 263.190261 236.098229 263.190261zM515.529383 752.194524c-19.211551 0-34.932604-15.71696-34.932604-34.92851 0-19.210527 15.721053-34.927487 34.932604-34.927487 19.210527 0 34.927487 15.71696 34.927487 34.927487C550.45687 736.477564 534.73991 752.194524 515.529383 752.194524L515.529383 752.194524z" p-id="5814" fill="#707070"></path></svg>