<?xml version="1.0" standalone="no"?><!DOCTYPE svg PUBLIC "-//W3C//DTD SVG 1.1//EN" "http://www.w3.org/Graphics/SVG/1.1/DTD/svg11.dtd"><svg t="1693148095054" class="icon" viewBox="0 0 1024 1024" version="1.1" xmlns="http://www.w3.org/2000/svg" p-id="1666" xmlns:xlink="http://www.w3.org/1999/xlink" width="200" height="200"><path d="M864 128h-704A96 96 0 0 0 64 224v576A96 96 0 0 0 160 896h704a96 96 0 0 0 96-96v-576A96 96 0 0 0 864 128z m32 672a32 32 0 0 1-32 32h-704a32 32 0 0 1-32-32V384h768zM896 320H128V224a32 32 0 0 1 32-32h704a32 32 0 0 1 32 32z" fill="#525D68" p-id="1667"></path><path d="M224 256m-32 0a32 32 0 1 0 64 0 32 32 0 1 0-64 0Z" fill="#525D68" p-id="1668"></path><path d="M352 256m-32 0a32 32 0 1 0 64 0 32 32 0 1 0-64 0Z" fill="#525D68" p-id="1669"></path><path d="M480 256m-32 0a32 32 0 1 0 64 0 32 32 0 1 0-64 0Z" fill="#525D68" p-id="1670"></path><path d="M256 722.56l27.52 26.88a12.16 12.16 0 0 0 17.92 0L412.8 640a46.08 46.08 0 0 0 0-64L302.72 466.56a12.16 12.16 0 0 0-17.92 0L256 493.44A13.44 13.44 0 0 0 256 512l97.92 96L256 704a13.44 13.44 0 0 0 0 18.56zM544 704h192a32 32 0 0 0 0-64h-192a32 32 0 0 0 0 64z" fill="#525D68" p-id="1671"></path></svg>