<?xml version="1.0" standalone="no"?><!DOCTYPE svg PUBLIC "-//W3C//DTD SVG 1.1//EN" "http://www.w3.org/Graphics/SVG/1.1/DTD/svg11.dtd"><svg t="1693148753284" class="icon" viewBox="0 0 1024 1024" version="1.1" xmlns="http://www.w3.org/2000/svg" p-id="7298" xmlns:xlink="http://www.w3.org/1999/xlink" width="200" height="200"><path d="M485.9452724609375 316.57294619140623c-16.56217705078125 0-32.62649326171875 4.8458478515625005-46.5334119140625 13.87372763671875-19.08467314453125 12.44652626953125-32.22820458984375 31.5643904296875-36.908098242187506 53.934945996093745-4.74627568359375 22.436937597656247-0.49786083984375007 45.23897373046875 11.9154744140625 64.323646875 18.65319345703125 28.5772236328125 97.58076416015625 77.0688896484375 143.28440771484375 102.36022998046874l2.6220682617187503-1.72591787109375c-37.47234111328125-37.571913281250005-77.0688896484375-77.8654669921875-114.97270957031249-121.54447529296876-3.5845998046874996-4.148841796875-3.18631025390625-9.791266992187499-2.85440361328125-12.04823759765625 0.23233535156250001-2.02463525390625 1.3276291992187501-7.40153408203125 5.9411416992187505-10.35550986328125 3.8169342773437505-2.4893050781249997 8.762354296875-2.2901607421875 12.61247958984375 0.4314796875l1.4272013671875 1.0289126953125c17.19280107421875 12.44652626953125 23.996902148437503 13.807346484375001 26.121109570312502 13.807346484375001 0 0.13276318359375 0.4314796875-0.4314796875 0.5310518554687499-2.2569697265625 0.69700517578125-8.695973144531251-0.23233535156250001-18.1221416015625-2.82121259765625-28.909131152343754-2.2569697265625-9.359787304687499-4.24841396484375-16.39622373046875-6.4058124023437495-22.90160830078125-2.057825390625-5.9411416992187505 0.5974330078125-13.5750111328125 5.9411416992187505-17.093228906249998 2.7880215820312504-1.75910888671875 5.808378515625-2.2237795898437502 8.695973144531251-1.626345703125 2.2901607421875 0.5642428710937499 5.376898828124999 2.057825390625 7.7002505859375 5.874760546875l96.48546943359375 162.800560546875c-5.244136523437501-35.81280439453125-20.511874511718748-129.70939658203125-40.990558886718745-161.1078328125C541.9048528320312 331.1104879882812 515.0203569335938 316.57294619140623 485.9452724609375 316.57294619140623z" p-id="7299" fill="#707070"></path><path d="M497.1969318359375 445.35300224609375c25.2249591796875 27.382357617187502 50.7154447265625 53.37070400390625 75.07744541015624 77.93184814453124l-58.946747167968745-99.43944521484374C510.17450908203125 436.822982421875 503.50317119140624 442.76412412109374 497.1969318359375 445.35300224609375z" p-id="7300" fill="#707070"></path><path d="M899.6677973632812 566.3332346679688l-5.443280859375-18.254904785156253-5.6424251953125-17.82342509765625L881.8111812499999 513.7591088867188l-6.306240234374999-16.5289869140625-6.4721935546875-16.13069736328125-5.874760546875-15.898362890625-4.978610156249999-16.5289869140625-3.8833163085937503-16.462604882812496 0.862959375-7.63386943359375 3.4518366210937503-7.13600859375 3.5845998046874996-7.7002505859375 0.92934052734375-7.03643642578125-3.1199291015625-14.603923828125-3.68417197265625-14.371588476562499-3.9165064453125003-14.8030681640625-4.51394033203125-14.20563515625-4.7794658203125-14.371588476562499L838.0657917968749 316.24103867187506 832.6888920898438 301.9026403320313l-5.6756162109375-14.0064908203125L820.7402275390626 274.68623691406253l-6.8372912109375-13.375866796875L807.4639329101562 248.0008853515625l20.41230234375-12.645670605468748L820.7402275390626 222.97507050781252l-8.06534912109375-11.55037587890625L804.6427203125 199.7415546875l-8.1649212890625-11.15208720703125-7.567487402343749-9.29340615234375-8.032158105468751-8.9614986328125-8.032158105468751-8.06534912109375-8.29768359375-8.06534912109375-8.43044677734375-7.63386943359375 18.68638447265625-7.102817578125L765.2121259765624 133.02817490234372l-9.32659716796875-6.8372912109375-9.890839160156249-5.874760546875L736.2366127929688 114.77327011718751l-10.15636552734375-5.6092341796875-10.32231884765625-4.9122290039062495-10.654226367187501-4.8458478515625005-11.31804140625-4.48074931640625-10.98613388671875-4.3479861328125-11.11889619140625-4.1820328125-13.409057812499999-4.3811771484375L644.9288978515626 78.59536806640625l-13.5418201171875-3.68417197265625-13.1767224609375-3.05354794921875-13.906918652343752-2.82121259765625-13.740964453125-2.19058857421875-13.87372763671875-1.75910888671875-13.973299804687501-1.2944390625-13.674583300781249-0.89614951171875-13.940108789062501-0.46467070312500003L521.3929783203125 62l-14.371588476562499 0.46467070312500003-13.906918652343752 0.46467070312500003-13.77415546875 0.862959375-13.84053662109375 1.2944390625-13.674583300781249 1.75910888671875-14.371588476562499 2.19058857421875-14.172444140624998 2.82121259765625-14.371588476562499 2.65525927734375-14.272016308593749 2.8875937499999997L380.46511250000003 81.615725 366.1599051757812 85.53223232421874 351.7551265625 90.11255380859376 338.01416123046874 94.92521064453126 324.538722265625 100.26891845703125 311.32880966796876 106.70792187500001 297.7869895507812 112.64906357421881 285.04174677734375 119.38678261718752 272.39607617187505 127.08703320312497 260.38102958984376 134.62133046875005 248.86384384765626 143.11815927734375 237.54580332031253 152.11284892578124l-10.15636552734375 8.9614986328125-9.791266992187499 9.29340615234375L208.27157363281248 180.19221083984377 199.34326601562503 190.3153853515625 190.81324707031246 201.63342675781252 182.34960927734375 212.320844140625l-7.63386943359375 11.55037587890625L167.57973125 235.75350341796872 160.51010468750002 248.0008853515625 154.27024648437498 260.38102958984376l-5.34370869140625 12.61247958984375-5.3105176757812504 12.44652626953125-4.54713046875 12.944387109375L135.11919130859377 311.29561865234376 131.89969003906248 324.7710576171876l-2.65525927734375 12.84481494140625L125.36111533203126 365.2637556640625 123.86753193359374 392.34739677734376l0.6638150390625 27.21640341796875 2.6220682617187503 26.685351562499996 4.2816049804687495 26.851305761718752 7.20238974609375 26.253871875 8.89511748046875 25.490485546875 67.07847744140625 108.89880556640625c113.77784355468751 117.16329814453127 108.96518671874999 234.19383398437498 108.96518671874999 234.19383398437498l0.29871650390625 23.1339427734375 0.862959375 70.92860273437499 387.7341793945312 0 1.626345703125-7.16919873046875 0-22.735654101562503 0.92934052734375-22.7688451171875 1.692727734375-50.84820791015625 2.65525927734375-25.88877421875 1.22805703125-6.0739048828125 2.4229239257812503-4.94542001953125 2.5888772460937504-4.44755830078125 3.4518366210937503-3.68417197265625 4.6135125-2.555687109375 5.244136523437501-1.82549091796875 5.808378515625-1.8918720703125 6.306240234374999-0.89614951171875 8.098539257812499-0.829768359375 7.567487402343749-0.46467070312500003 1.8918720703125 0 7.60067841796875 0.829768359375 7.13600859375 0.46467070312500003 7.60067841796875 0.89614951171875 6.9700543945312505 0.6306240234374999 7.99896708984375 0.862959375 7.66706044921875 0.829768359375-19.08467314453125 0.46467070312500003 8.46363779296875 0.89614951171875 8.563209960937499 0.398288671875 9.260215136718749 0.49786083984375007 5.443280859375-0.49786083984375007 5.6424251953125-1.2944390625 5.808378515625-2.15739755859375 5.50966201171875-2.82121259765625 5.27732666015625-3.4518366210937503 4.51394033203125-4.115651660156249 3.783744140625-4.3479861328125 3.3190734375-4.64670263671875 2.15739755859375-9.7580759765625-1.19486689453125-10.6874173828125-2.02463525390625-10.554654199218751 0-10.255937695312499 1.5931555664062498-4.580321484375 2.1242074218749996-3.8833163085937503 2.1242074218749996-4.1820328125 2.65525927734375-3.48502763671875 2.7548314453125-3.68417197265625 2.19058857421875-3.9496974609374997 1.75910888671875-4.0492696289062495 0.46467070312500003-4.3811771484375-0.46467070312500003-5.011801171875-0.862959375-4.3811771484375-1.3276291992187501-4.51394033203125-2.19058857421875-4.31479599609375-3.18631025390625-4.1820328125-3.48502763671875-3.8833163085937503-4.148841796875-3.1531201171874996-4.74627568359375-3.1531201171874996 5.177754492187501-2.65525927734375 4.978610156249999-3.05354794921875 5.07818232421875-3.68417197265625 3.38545546875-3.4518366210937503 3.0867380859374998-4.148841796875 1.8918720703125-4.3479861328125 0.9957216796875001-4.115651660156249-0.9957216796875001-4.3479861328125-4.94542001953125-15.666027539062501-3.0867380859374998-14.437970507812501-1.8918720703125-13.1767224609375 0-13.143531445312501 7.567487402343749-3.02035693359375 6.77091005859375-3.05354794921875 5.90795068359375-3.2526922851562503 4.7794658203125-3.5182177734375 3.68417197265625-3.85012529296875 2.2237795898437502-4.148841796875 1.2612480468749998-4.31479599609375L899.6677973632812 566.3332346679688zM511.4689481445312 176.83994726562497l31.166100878906246 22.802036132812503L495.736539453125 264.1315827148437l-31.232482910156254-22.83522626953125L511.4689481445312 176.83994726562497zM259.9827409179687 398.85278046875L251.18719560546873 361.21448603515626l88.7188376953125-20.6446376953125L348.63519658203126 378.30771494140623 259.9827409179687 398.85278046875zM340.3375129882813 314.78064628906253L270.8029206054688 275.748340625l18.9519099609375-33.72178798828126L359.3889951171875 281.125239453125 340.3375129882813 314.78064628906253zM399.5829766601562 164.99085400390624l31.5643904296875 73.18557333984374-35.514087890625 15.30092900390625-31.5311994140625-73.2187634765625L399.5829766601562 164.99085400390624zM554.4509512695313 581.7005457031249c-5.443280859375-2.920784765625-134.1569548828125-71.75837109374999-163.8958552734375-117.42882451171876-34.35241201171875-52.67369794921875-19.35019951171875-123.46953837890625 33.25711728515625-157.755568359375 18.5868123046875-12.04823759765625 40.02802734375-18.454049121093753 62.06667626953124-18.454049121093753 38.83316132812501 0 74.61277470703125 19.3833896484375 95.7552732421875 51.810739453125 28.975512304687502 44.50877753906249 46.168314257812504 177.33810322265626 47.993804296875005 192.2739345703125l0.6306240234374999 5.6092341796875-71.1609380859375 46.40064873046875L554.4509512695313 581.7005457031249zM659.0681518554687 655.8818407226563c-11.616757910156249 7.534297265624998-21.905885742187497 11.15208720703125-31.431627246093747 11.15208720703125-2.7880215820312504 0-5.54285302734375-0.33190751953125-8.098539257812499-0.92934052734375-11.5171857421875-2.6220682617187503-17.62428076171875-10.45508203125-19.151054296875-12.84481494140625-0.96253154296875-1.0621037109374998-2.65525927734375-2.95397578125-4.115651660156249-5.2109455078125l-31.1329107421875-47.7614689453125 82.34621630859375-53.56984833984375 31.1329107421875 47.7614689453125c1.3940112304687498 2.057825390625 2.4229239257812503 4.24841396484375 3.38545546875 6.37262138671875 1.0289126953125 1.626345703125 1.626345703125 3.5514087890625 2.09101640625 5.11137333984375C686.5500807617187 614.293848828125 689.1721490234376 635.9342082031251 659.0681518554687 655.8818407226563z" p-id="7301" fill="#707070"></path></svg>